<svg width="10" height="11" viewBox="0 0 10 11" fill="none" xmlns="http://www.w3.org/2000/svg">
<path d="M1.128 10.092C0.652 9.32667 0.33 8.53333 0.162 7.712C0.00333335 6.89067 -0.006 6.08333 0.134 5.29C0.274 4.48733 0.563333 3.71733 1.002 2.98C1.45 2.24267 2.04733 1.58 2.794 0.992L3.998 1.72C4.11 1.78533 4.18467 1.86 4.222 1.944C4.26867 2.028 4.28733 2.11667 4.278 2.21C4.278 2.294 4.25933 2.378 4.222 2.462C4.18467 2.546 4.138 2.616 4.082 2.672C3.90467 2.87733 3.72267 3.16667 3.536 3.54C3.35867 3.904 3.228 4.324 3.144 4.8C3.06933 5.26667 3.074 5.77533 3.158 6.326C3.242 6.87667 3.46133 7.432 3.816 7.992C4.00267 8.28133 4.054 8.538 3.97 8.762C3.886 8.97667 3.71333 9.126 3.452 9.21L1.128 10.092ZM5.944 10.092C5.468 9.32667 5.146 8.53333 4.978 7.712C4.81933 6.89067 4.81 6.08333 4.95 5.29C5.09 4.48733 5.37933 3.71733 5.818 2.98C6.266 2.24267 6.86333 1.58 7.61 0.992L8.814 1.72C8.926 1.78533 9.00067 1.86 9.038 1.944C9.08467 2.028 9.10333 2.11667 9.094 2.21C9.094 2.294 9.07533 2.378 9.038 2.462C9.00067 2.546 8.954 2.616 8.898 2.672C8.72067 2.87733 8.53867 3.16667 8.352 3.54C8.17467 3.904 8.044 4.324 7.96 4.8C7.88533 5.26667 7.89 5.77533 7.974 6.326C8.058 6.87667 8.27733 7.432 8.632 7.992C8.81867 8.28133 8.87 8.538 8.786 8.762C8.702 8.97667 8.52933 9.126 8.268 9.21L5.944 10.092Z" fill="#F3353E"/>
</svg>
