<svg width="113" height="16" viewBox="0 0 113 16" fill="none" xmlns="http://www.w3.org/2000/svg">
<path d="M9.19954 0.516875L11.092 4.32766C11.2236 4.5927 11.478 4.77635 11.7724 4.81879L16.0042 5.42992C16.7455 5.53705 17.0413 6.44209 16.5051 6.9614L13.4429 9.92766C13.2301 10.1339 13.1328 10.4313 13.1832 10.7224L13.906 14.911C14.0327 15.6445 13.2578 16.2038 12.5949 15.8577L8.80999 13.8804C8.54679 13.743 8.23214 13.743 7.96894 13.8804L4.18404 15.8577C3.52114 16.2042 2.74624 15.6445 2.87294 14.911L3.59569 10.7224C3.64609 10.4313 3.54879 10.1339 3.33599 9.92766L0.273837 6.9614C-0.262363 6.44174 0.0333868 5.5367 0.774687 5.42992L5.00654 4.81879C5.30089 4.77635 5.55534 4.5927 5.68694 4.32766L7.57939 0.516875C7.91049 -0.150604 8.86809 -0.150604 9.19954 0.516875Z" fill="#ED8A19"/>
<path d="M32.9993 0.516875L34.8918 4.32766C35.0234 4.5927 35.2778 4.77635 35.5722 4.81879L39.804 5.42992C40.5453 5.53705 40.8411 6.44209 40.3049 6.9614L37.2427 9.92766C37.0299 10.1339 36.9326 10.4313 36.983 10.7224L37.7058 14.911C37.8325 15.6445 37.0576 16.2038 36.3947 15.8577L32.6098 13.8804C32.3466 13.743 32.0319 13.743 31.7687 13.8804L27.9838 15.8577C27.3209 16.2042 26.546 15.6445 26.6727 14.911L27.3955 10.7224C27.4459 10.4313 27.3486 10.1339 27.1358 9.92766L24.0736 6.9614C23.5374 6.44174 23.8332 5.5367 24.5745 5.42992L28.8063 4.81879C29.1007 4.77635 29.3551 4.5927 29.4867 4.32766L31.3792 0.516875C31.7103 -0.150604 32.6679 -0.150604 32.9993 0.516875Z" fill="#ED8A19"/>
<path d="M80.5994 0.516875L82.4919 4.32766C82.6235 4.5927 82.8779 4.77635 83.1723 4.81879L87.4041 5.42992C88.1454 5.53705 88.4412 6.44209 87.905 6.9614L84.8428 9.92766C84.63 10.1339 84.5327 10.4313 84.5831 10.7224L85.3059 14.911C85.4326 15.6445 84.6577 16.2038 83.9948 15.8577L80.2099 13.8804C79.9467 13.743 79.632 13.743 79.3688 13.8804L75.5839 15.8577C74.921 16.2042 74.1461 15.6445 74.2728 14.911L74.9956 10.7224C75.046 10.4313 74.9487 10.1339 74.7359 9.92766L71.6737 6.9614C71.1375 6.44174 71.4333 5.5367 72.1746 5.42992L76.4064 4.81879C76.7008 4.77635 76.9552 4.5927 77.0868 4.32766L78.9793 0.516875C79.3104 -0.150604 80.268 -0.150604 80.5994 0.516875Z" fill="#ED8A19"/>
<path d="M56.7996 0.516875L58.6921 4.32766C58.8237 4.5927 59.0781 4.77635 59.3725 4.81879L63.6043 5.42992C64.3456 5.53705 64.6414 6.44209 64.1052 6.9614L61.043 9.92766C60.8302 10.1339 60.7329 10.4313 60.7833 10.7224L61.5061 14.911C61.6328 15.6445 60.8579 16.2038 60.195 15.8577L56.4101 13.8804C56.1469 13.743 55.8322 13.743 55.569 13.8804L51.7841 15.8577C51.1212 16.2042 50.3463 15.6445 50.473 14.911L51.1958 10.7224C51.2462 10.4313 51.1489 10.1339 50.9361 9.92766L47.8739 6.9614C47.3377 6.44174 47.6335 5.5367 48.3748 5.42992L52.6066 4.81879C52.901 4.77635 53.1554 4.5927 53.287 4.32766L55.1795 0.516875C55.5106 -0.150604 56.4682 -0.150604 56.7996 0.516875Z" fill="#ED8A19"/>
<path d="M104.4 0.516875L106.292 4.32766C106.424 4.5927 106.678 4.77635 106.973 4.81879L111.204 5.42992C111.946 5.53705 112.241 6.44209 111.705 6.9614L108.643 9.92766C108.43 10.1339 108.333 10.4313 108.383 10.7224L109.106 14.911C109.233 15.6445 108.458 16.2038 107.795 15.8577L104.01 13.8804C103.747 13.743 103.432 13.743 103.169 13.8804L99.3842 15.8577C98.7213 16.2042 97.9464 15.6445 98.0731 14.911L98.7959 10.7224C98.8463 10.4313 98.749 10.1339 98.5362 9.92766L95.474 6.9614C94.9378 6.44174 95.2336 5.5367 95.9749 5.42992L100.207 4.81879C100.501 4.77635 100.756 4.5927 100.887 4.32766L102.78 0.516875C103.111 -0.150604 104.068 -0.150604 104.4 0.516875Z" fill="#ED8A19"/>
</svg>
